<mxfile host="Electron" agent="Mozilla/5.0 (X11; Linux x86_64) AppleWebKit/537.36 (KHTML, like Gecko) draw.io/26.0.16 Chrome/132.0.6834.196 Electron/34.2.0 Safari/537.36" version="26.0.16">
  <diagram name="Page-1" id="ar6g9Ac5N1A8612GCJT5">
    <mxGraphModel dx="1231" dy="725" grid="1" gridSize="10" guides="1" tooltips="1" connect="1" arrows="1" fold="1" page="1" pageScale="1" pageWidth="1100" pageHeight="850" math="0" shadow="0">
      <root>
        <object label="" odk_type="calculate" id="0">
          <mxCell />
        </object>
        <mxCell id="1" parent="0" />
        <object label="Main Start" odk_type="start" form_id="questionaire" id="9h_7ULtGxM4QA24hQGT3-1">
          <mxCell style="ellipse;whiteSpace=wrap;html=1;aspect=fixed;fontColor=default;" vertex="1" parent="1">
            <mxGeometry x="90" y="100" width="70" height="70" as="geometry" />
          </mxCell>
        </object>
      </root>
    </mxGraphModel>
  </diagram>
</mxfile>
